<?xml version="1.0" encoding="UTF-8"?>
<svg width="512px" height="512px" viewBox="0 0 512 512" version="1.1" xmlns="http://www.w3.org/2000/svg" xmlns:xlink="http://www.w3.org/1999/xlink">
    <title>Icon</title>
    <g id="Icon" stroke="none" stroke-width="1" fill="none" fill-rule="evenodd">
        <path d="M128.19426,-5.17920154e-15 L383.80574,5.17920154e-15 C428.381677,-3.00926524e-15 444.545989,4.64128056 460.842285,13.3566352 C477.138581,22.0719898 489.92801,34.8614185 498.643365,51.1577148 C507.358719,67.4540111 512,83.618323 512,128.19426 L512,383.80574 C512,428.381677 507.358719,444.545989 498.643365,460.842285 C489.92801,477.138581 477.138581,489.92801 460.842285,498.643365 C444.545989,507.358719 428.381677,512 383.80574,512 L128.19426,512 C83.618323,512 67.4540111,507.358719 51.1577148,498.643365 C34.8614185,489.92801 22.0719898,477.138581 13.3566352,460.842285 C4.64128056,444.545989 2.00617683e-15,428.381677 -3.45280103e-15,383.80574 L3.45280103e-15,128.19426 C-2.00617683e-15,83.618323 4.64128056,67.4540111 13.3566352,51.1577148 C22.0719898,34.8614185 34.8614185,22.0719898 51.1577148,13.3566352 C67.4540111,4.64128056 83.618323,3.00926524e-15 128.19426,-5.17920154e-15 Z" id="Background" fill="#333333"></path>
        <g id="Boat" transform="translate(74.000000, 56.000000)" fill="#FF4499">
            <path d="M184.889864,343.412422 C111.427869,341.000832 45.6729024,327.657873 0,308.312343 C14.5470165,366.982636 99.9198741,406.879492 199.279237,399.011019 C272.609863,393.184476 334.327397,362.86357 363.72796,323.169147 C317.47703,337.788312 254.296912,345.68319 184.889864,343.412422 Z" id="Shape"></path>
            <path d="M301.259446,355.693613 L315.459656,400 C315.459656,400 333.276818,366.407477 333.501259,338.539043 L301.259446,355.693613 Z" id="Shape"></path>
            <polygon id="Shape" points="288.161209 16.1209068 288.161209 365.743073 279.093199 365.743073"></polygon>
            <path d="M281.108312,2.84217094e-14 C281.108312,2.84217094e-14 161.923441,87.8315112 79.5969773,292.191436 C79.5969773,292.191436 188.497617,237.004409 275.86537,292.191436 L281.108312,2.84217094e-14 Z" id="Shape"></path>
            <path d="M285.138539,330.679826 L120.707343,292.191436 L104.785894,332.578004 C126.090351,335.350917 148.541433,337.205358 171.780271,337.966378 C220.927571,339.567146 246.022015,338.018863 285.138539,330.679826 Z" id="Shape"></path>
            <path d="M132.836464,326.393137 C122.593028,326.819977 114.861461,324.632422 114.861461,324.632422 L123.911314,299.244332 C123.911314,299.244332 136.1589,302.525665 141.057935,303.912895 C139.071599,312.840966 137.174336,318.656661 132.836464,326.393137 Z" id="Shape"></path>
        </g>
    </g>
</svg>