<?xml version="1.0" ?><!DOCTYPE svg  PUBLIC '-//W3C//DTD SVG 1.1//EN'  'http://www.w3.org/Graphics/SVG/1.1/DTD/svg11.dtd'><svg enable-background="new 0 0 512 512" height="512px" id="Слой_1" version="1.1" viewBox="0 0 512 512" width="512px" xml:space="preserve" xmlns="http://www.w3.org/2000/svg" xmlns:xlink="http://www.w3.org/1999/xlink"><g id="Code_Optimization"><g><g><path d="M512,176.486c0,7.873-6.379,14.26-14.254,14.26H14.254C6.379,190.746,0,184.365,0,176.494V78.928     c0-7.875,6.379-14.254,14.254-14.254l483.492-0.008c7.875,0,14.254,6.379,14.254,14.254V176.486z" fill="#CCD1D9"/><rect fill="#E5E8EC" height="345.602" width="512" y="101.732"/><path d="M23.719,79.406c-2.793,0-5.066,2.279-5.066,5.072c0,2.795,2.273,5.066,5.066,5.066     c2.801,0,5.066-2.271,5.066-5.066C28.785,81.686,26.52,79.406,23.719,79.406z" fill="#E6E9ED"/><path d="M47.008,79.406c-2.793,0-5.074,2.279-5.074,5.072c0,2.795,2.281,5.066,5.074,5.066     s5.066-2.271,5.066-5.066C52.074,81.686,49.801,79.406,47.008,79.406z" fill="#E6E9ED"/><path d="M70.285,79.406c-2.793,0-5.066,2.279-5.066,5.072c0,2.795,2.273,5.066,5.066,5.066     s5.066-2.271,5.066-5.066C75.352,81.686,73.078,79.406,70.285,79.406z" fill="#E6E9ED"/></g><rect fill="#424953" height="12.352" width="96.18" x="28.16" y="127.787"/><rect fill="#9ED36A" height="12.361" width="48.094" x="56.668" y="156.293"/><rect fill="#FB6D51" height="12.354" width="126.289" x="85.172" y="184.807"/><rect fill="#FECD57" height="12.355" width="330.227" x="85.172" y="213.318"/><rect fill="#FB6D51" height="12.354" width="126.289" x="85.172" y="241.826"/><rect fill="#9ED36A" height="12.355" width="154.793" x="56.668" y="270.338"/><rect fill="#46CEAD" height="12.352" width="259.008" x="85.172" y="298.846"/><rect fill="#FECD57" height="12.352" width="344.539" x="113.688" y="327.361"/><rect fill="#FB6D51" height="12.355" width="67.68" x="85.172" y="355.865"/><rect fill="#9ED36A" height="12.352" width="151.613" x="56.668" y="384.381"/><rect fill="#424953" height="12.355" width="96.18" x="28.16" y="412.885"/></g><path d="M436.926,279.928l-9.094-3.688c-11.633-7.207-16.746-21.961-11.445-35.066   c2.234-5.527,6-9.975,10.594-13.047l10.008-4.254c0.012,0,0.02-0.02,0.031-0.02h-0.012l-14.961-35.234l-0.039-0.074   c-0.16,0.088-0.313,0.188-0.488,0.301l-9.078,3.854c-13.34,3.135-27.375-3.693-32.91-16.727c-2.324-5.473-2.816-11.287-1.73-16.727   l4.059-10.061c0,0,0.008,0,0.02-0.012h-0.012l-35.508-14.348l-0.094-0.039c-0.047,0.213-0.105,0.418-0.145,0.625l-3.668,9.088   c-7.234,11.627-21.98,16.727-35.113,11.432c-5.52-2.232-9.98-6-13.059-10.592l-4.254-10c0,0,0,0,0-0.021l-35.262,14.955   l-0.086,0.045c0.094,0.16,0.199,0.328,0.309,0.475l3.859,9.094c3.121,13.313-3.707,27.34-16.742,32.865   c-5.492,2.334-11.301,2.834-16.746,1.742l-10.047-4.063c-0.008,0-0.027,0-0.031-0.02l0.004,0.02h-0.004l-14.348,35.496   l-0.027,0.086c0.188,0.031,0.398,0.086,0.605,0.146l9.094,3.658c11.633,7.215,16.742,21.961,11.434,35.09   c-2.234,5.504-5.992,9.973-10.586,13.051l-9.992,4.227c-0.02,0.012-0.035,0.012-0.039,0.012h0.004l14.961,35.242h0.008l0.039,0.102   c0.16-0.102,0.32-0.215,0.488-0.313l9.09-3.848c13.32-3.129,27.363,3.699,32.895,16.727c2.328,5.473,2.813,11.277,1.746,16.711   l-4.066,10.055c-0.008,0.02-0.02,0.02-0.02,0.039l35.52,14.328l0.094,0.035c0.039-0.215,0.086-0.414,0.141-0.629l3.68-9.066   c7.215-11.633,21.961-16.742,35.094-11.426c5.527,2.219,9.98,5.973,13.074,10.598l4.23,9.969c0,0.02,0.016,0.02,0.016,0.02l0,0   l35.258-14.961l0.094-0.039c-0.113-0.148-0.207-0.313-0.32-0.473l-3.852-9.082c-3.113-13.32,3.699-27.352,16.738-32.859   c5.48-2.355,11.293-2.824,16.734-1.766l10.059,4.066c0.023,0,0.023,0.02,0.035,0.02l14.348-35.5l0.031-0.102   C437.332,280.014,437.133,279.959,436.926,279.928z M337.305,295.619c-23.531,9.973-50.711-0.992-60.699-24.52   c-9.984-23.52,0.988-50.66,24.527-60.641c23.539-9.992,50.707,0.994,60.699,24.514C371.82,258.479,360.84,285.635,337.305,295.619z   " fill="#424953"/><path d="M319.219,183.721c-38.273,0-69.297,31.031-69.297,69.305c0,38.281,31.023,69.309,69.297,69.309   c38.281,0,69.313-31.027,69.313-69.309C388.531,214.752,357.5,183.721,319.219,183.721z M337.305,295.619   c-23.531,9.973-50.711-0.992-60.699-24.52c-9.984-23.52,0.988-50.66,24.527-60.641c23.539-9.992,50.707,0.994,60.699,24.514   C371.82,258.479,360.84,285.635,337.305,295.619z" fill="#303842"/><path d="M512,399.545V375.6h-13.578c-1.137-4.379-2.836-8.52-5.082-12.32l9.586-9.598l-16.953-16.922l-9.512,9.52   c-3.859-2.309-8.063-4.082-12.516-5.227v-13.488h-23.957v13.488c-4.41,1.133-8.547,2.867-12.375,5.133l-9.547-9.539l-16.941,16.941   l9.543,9.531c-2.27,3.848-4.027,8.02-5.16,12.48H392.16v23.945h13.414c1.141,4.402,2.906,8.566,5.188,12.41l-9.523,9.484   l16.949,16.945l9.594-9.578c3.75,2.211,7.852,3.906,12.207,5.039v13.488h23.957v-13.488c4.402-1.133,8.555-2.887,12.359-5.113   l9.555,9.52l16.941-16.906l-9.539-9.57c2.23-3.762,3.957-7.863,5.098-12.23H512z M451.961,405.154   c-9.781,0-17.719-7.914-17.719-17.699c0-9.773,7.938-17.711,17.719-17.711c9.793,0,17.707,7.938,17.707,17.711   C469.668,397.24,461.754,405.154,451.961,405.154z" fill="#424953"/><path d="M337.988,253.025c0,10.367-8.402,18.762-18.77,18.762c-10.359,0-18.758-8.395-18.758-18.762   c0-10.359,8.398-18.752,18.758-18.752C329.586,234.273,337.988,242.666,337.988,253.025z" fill="#303842"/></g></svg>